<svg width="120" height="30" viewBox="0 0 204 50" fill="none" xmlns="http://www.w3.org/2000/svg">
<path fill-rule="evenodd" clip-rule="evenodd" d="M155.946 0.0319098C164.742 0.491078 173.233 5.89742 176.611 14.9411H173.374C170.207 7.7484 163.157 3.41242 155.789 3.02783C148.442 2.64429 140.775 6.19855 136.458 14.9411H133.151C137.854 4.1485 147.055 -0.432198 155.946 0.0319098ZM167.558 14.9413C165.211 10.3103 160.427 7.59852 155.53 7.35031C150.484 7.09454 145.258 9.44368 142.264 14.9413H145.803C148.265 11.5517 151.882 10.1693 155.378 10.3465C158.799 10.5198 162.063 12.1785 164.054 14.9413H167.558ZM108.376 13.912C108.12 13.624 107.784 13.48 107.368 13.48C106.952 13.48 106.6 13.624 106.312 13.912C106.056 14.168 105.928 14.504 105.928 14.92V28.984C105.096 27.48 103.88 26.264 102.28 25.336C100.68 24.376 98.9362 23.896 97.0482 23.896C94.9682 23.896 93.0642 24.456 91.3362 25.576C89.6402 26.664 88.2962 28.184 87.3042 30.136C86.3122 32.088 85.8162 34.264 85.8162 36.664C85.8162 39.096 86.3122 41.288 87.3042 43.24C88.2962 45.192 89.6402 46.728 91.3362 47.848C93.0642 48.936 94.9842 49.48 97.0962 49.48C99.0162 49.48 100.76 48.968 102.328 47.944C103.928 46.92 105.128 45.672 105.928 44.2V47.56C105.928 47.976 106.056 48.328 106.312 48.616C106.6 48.872 106.952 49 107.368 49C107.784 49 108.12 48.872 108.376 48.616C108.664 48.328 108.808 47.976 108.808 47.56V14.92C108.808 14.504 108.664 14.168 108.376 13.912ZM101.848 45.496C100.536 46.36 99.0482 46.792 97.3842 46.792C95.7202 46.792 94.2162 46.36 92.8722 45.496C91.5602 44.6 90.5202 43.384 89.7522 41.848C89.0162 40.312 88.6482 38.584 88.6482 36.664C88.6482 34.776 89.0162 33.064 89.7522 31.528C90.5202 29.992 91.5602 28.792 92.8722 27.928C94.2162 27.032 95.7202 26.584 97.3842 26.584C99.0482 26.584 100.536 27.032 101.848 27.928C103.192 28.792 104.232 29.992 104.968 31.528C105.736 33.064 106.12 34.776 106.12 36.664C106.12 38.584 105.736 40.328 104.968 41.896C104.232 43.432 103.192 44.632 101.848 45.496ZM25.76 47.608C25.76 47.128 25.52 46.728 25.04 46.408C24.496 46.088 24.096 45.528 23.84 44.728C23.616 43.928 23.488 42.536 23.456 40.552C23.424 38.696 22.96 37.128 22.064 35.848C21.168 34.536 20.016 33.608 18.608 33.064C20.336 32.488 21.728 31.432 22.784 29.896C23.872 28.328 24.416 26.52 24.416 24.472C24.416 22.744 24 21.192 23.168 19.816C22.368 18.44 21.248 17.368 19.808 16.6C18.368 15.8 16.736 15.4 14.912 15.4H1.95199C1.53599 15.4 1.18399 15.544 0.895993 15.832C0.639993 16.088 0.511993 16.424 0.511993 16.84V47.56C0.511993 47.976 0.671993 48.328 0.991993 48.616C1.31199 48.872 1.69599 49 2.14399 49C2.55999 49 2.89599 48.872 3.15199 48.616C3.40799 48.328 3.53599 47.976 3.53599 47.56V34.648H14.192C15.92 34.648 17.408 35.112 18.656 36.04C19.904 36.936 20.528 38.504 20.528 40.744C20.528 43.272 20.8 45.112 21.344 46.264C21.888 47.416 22.608 48.248 23.504 48.76C23.728 48.888 24 48.952 24.32 48.952C24.576 48.952 24.816 48.888 25.04 48.76C25.264 48.632 25.44 48.456 25.568 48.232C25.696 47.976 25.76 47.768 25.76 47.608ZM18.176 30.904C17.216 31.544 16.176 31.912 15.056 32.008H3.53599V18.232H14.672C16.656 18.232 18.256 18.84 19.472 20.056C20.72 21.24 21.344 22.744 21.344 24.568C21.344 25.976 21.056 27.224 20.48 28.312C19.904 29.4 19.136 30.264 18.176 30.904ZM52.0179 36.328C52.3059 36.04 52.4499 35.704 52.4499 35.32C52.4179 32.952 51.8739 30.904 50.8179 29.176C49.7619 27.448 48.3859 26.136 46.6899 25.24C45.0259 24.344 43.2339 23.896 41.3139 23.896C39.3619 23.896 37.5219 24.424 35.7939 25.48C34.0659 26.504 32.6739 28.008 31.6179 29.992C30.5939 31.944 30.0819 34.232 30.0819 36.856C30.0819 39.352 30.6099 41.56 31.6659 43.48C32.7219 45.368 34.1939 46.84 36.0819 47.896C37.9699 48.952 40.1459 49.48 42.6099 49.48C44.3379 49.48 45.9699 49.08 47.5059 48.28C49.0739 47.48 50.3699 46.456 51.3939 45.208C51.7139 44.888 51.8739 44.552 51.8739 44.2C51.8739 43.88 51.7459 43.592 51.4899 43.336C51.2339 43.08 50.9459 42.952 50.6259 42.952C50.3059 42.952 49.9699 43.096 49.6179 43.384C48.8819 44.376 47.9059 45.192 46.6899 45.832C45.4739 46.472 44.0979 46.792 42.5619 46.792C40.5779 46.792 38.8499 46.36 37.3779 45.496C35.9379 44.6 34.8179 43.4 34.0179 41.896C33.2499 40.36 32.8659 38.632 32.8659 36.712H51.0099C51.3939 36.712 51.7299 36.584 52.0179 36.328ZM36.1299 28.6C37.7299 27.32 39.4579 26.68 41.3139 26.68C42.5939 26.68 43.8259 26.968 45.0099 27.544C46.2259 28.088 47.2339 28.904 48.0339 29.992C48.8339 31.048 49.3139 32.296 49.4739 33.736V34.12H33.1059C33.5539 31.72 34.5619 29.88 36.1299 28.6ZM78.4932 24.472C78.9092 24.472 79.2452 24.616 79.5012 24.904C79.7892 25.192 79.9332 25.544 79.9332 25.96V47.56C79.9332 47.976 79.7892 48.328 79.5012 48.616C79.2452 48.872 78.9092 49 78.4932 49C78.0772 49 77.7253 48.872 77.4372 48.616C77.1812 48.328 77.0532 47.976 77.0532 47.56V44.344C76.2532 45.784 75.0532 47 73.4532 47.992C71.8532 48.984 70.1092 49.48 68.2212 49.48C66.0772 49.48 64.1412 48.92 62.4132 47.8C60.7172 46.68 59.3732 45.144 58.3812 43.192C57.4212 41.24 56.9412 39.048 56.9412 36.616C56.9412 34.184 57.4372 32.008 58.4292 30.088C59.4212 28.136 60.7652 26.616 62.4612 25.528C64.1892 24.44 66.0932 23.896 68.1732 23.896C70.0932 23.896 71.8532 24.36 73.4532 25.288C75.0532 26.216 76.2532 27.432 77.0532 28.936V25.96C77.0532 25.544 77.1812 25.192 77.4372 24.904C77.7253 24.616 78.0772 24.472 78.4932 24.472ZM68.5092 46.792C70.1732 46.792 71.6612 46.36 72.9732 45.496C74.3172 44.6 75.3572 43.384 76.0932 41.848C76.8612 40.28 77.2452 38.536 77.2452 36.616C77.2452 34.76 76.8612 33.064 76.0932 31.528C75.3572 29.992 74.3172 28.792 72.9732 27.928C71.6612 27.032 70.1732 26.584 68.5092 26.584C66.8452 26.584 65.3412 27.016 63.9972 27.88C62.6852 28.744 61.6452 29.944 60.8772 31.48C60.1412 32.984 59.7732 34.696 59.7732 36.616C59.7732 38.536 60.1412 40.28 60.8772 41.848C61.6132 43.384 62.6372 44.6 63.9492 45.496C65.2932 46.36 66.8132 46.792 68.5092 46.792ZM127.891 23.896C130.867 23.896 133.043 24.776 134.419 26.536C135.827 28.264 136.531 30.568 136.531 33.448V47.56C136.531 47.976 136.387 48.328 136.099 48.616C135.811 48.872 135.475 49 135.091 49C134.675 49 134.323 48.872 134.035 48.616C133.779 48.328 133.651 47.976 133.651 47.56V33.592C133.651 31.512 133.123 29.832 132.067 28.552C131.043 27.24 129.443 26.584 127.267 26.584C125.891 26.584 124.579 26.904 123.331 27.544C122.115 28.184 121.123 29.048 120.355 30.136C119.587 31.192 119.203 32.344 119.203 33.592V47.56C119.203 47.976 119.059 48.328 118.771 48.616C118.515 48.872 118.179 49 117.763 49C117.347 49 116.995 48.872 116.707 48.616C116.451 48.328 116.323 47.976 116.323 47.56V26.056C116.323 25.64 116.451 25.304 116.707 25.048C116.995 24.76 117.347 24.616 117.763 24.616C118.179 24.616 118.515 24.76 118.771 25.048C119.059 25.304 119.203 25.64 119.203 26.056V28.696C120.067 27.32 121.299 26.184 122.899 25.288C124.531 24.36 126.195 23.896 127.891 23.896ZM165.145 43.24C166.201 41.288 166.729 39.112 166.729 36.712C166.729 34.312 166.201 32.136 165.145 30.184C164.089 28.232 162.633 26.696 160.777 25.576C158.921 24.456 156.857 23.896 154.585 23.896C152.313 23.896 150.249 24.456 148.393 25.576C146.537 26.696 145.081 28.232 144.025 30.184C142.969 32.136 142.441 34.312 142.441 36.712C142.441 39.112 142.969 41.288 144.025 43.24C145.081 45.192 146.537 46.728 148.393 47.848C150.249 48.936 152.313 49.48 154.585 49.48C156.857 49.48 158.921 48.936 160.777 47.848C162.633 46.728 164.089 45.192 165.145 43.24ZM162.649 31.528C163.449 33.064 163.849 34.792 163.849 36.712C163.849 38.632 163.449 40.36 162.649 41.896C161.849 43.432 160.729 44.632 159.289 45.496C157.881 46.36 156.313 46.792 154.585 46.792C152.857 46.792 151.289 46.36 149.881 45.496C148.473 44.6 147.353 43.384 146.521 41.848C145.721 40.312 145.321 38.6 145.321 36.712C145.321 34.792 145.721 33.064 146.521 31.528C147.353 29.992 148.473 28.792 149.881 27.928C151.289 27.032 152.857 26.584 154.585 26.584C156.313 26.584 157.881 27.032 159.289 27.928C160.729 28.792 161.849 29.992 162.649 31.528ZM201.756 23.944C202.172 23.944 202.508 24.072 202.764 24.328C203.052 24.584 203.196 24.936 203.196 25.384C203.196 25.416 203.148 25.624 203.052 26.008L195.66 48.088C195.5 48.376 195.292 48.616 195.036 48.808C194.78 48.968 194.508 49.032 194.22 49C193.932 49 193.676 48.92 193.452 48.76C193.228 48.6 193.052 48.376 192.924 48.088L186.636 33.304L181.02 48.088C180.892 48.344 180.7 48.568 180.444 48.76C180.22 48.92 179.98 49 179.724 49C179.404 49.032 179.1 48.968 178.812 48.808C178.556 48.616 178.38 48.376 178.284 48.088L170.7 26.008C170.604 25.816 170.556 25.608 170.556 25.384C170.556 24.968 170.7 24.632 170.988 24.376C171.276 24.088 171.628 23.944 172.044 23.944C172.332 23.944 172.588 24.04 172.812 24.232C173.068 24.392 173.244 24.616 173.34 24.904L179.724 44.056L185.436 29.704C185.66 29.096 186.108 28.792 186.78 28.792C187.42 28.792 187.868 29.096 188.124 29.704L194.124 43.96L200.412 24.904C200.604 24.264 201.052 23.944 201.756 23.944Z" fill="#27AE60"/>
</svg>
